<svg xmlns="http://www.w3.org/2000/svg" version="1.1" xmlns:xlink="http://www.w3.org/1999/xlink" xmlns:svgjs="http://svgjs.dev/svgjs" viewBox="0 0 800 800"><defs><linearGradient x1="50%" y1="0%" x2="50%" y2="100%" id="wwwhirl-grad"><stop stop-color="#3C4045" stop-opacity="1" offset="45%"></stop><stop stop-color="#424346" stop-opacity="1" offset="100%"></stop></linearGradient></defs><g stroke-width="2" stroke="url(#wwwhirl-grad)" fill="none" stroke-linecap="round"><path d="M-330.00006360140696 496.61363031497626C-313.4091540502121 481.6818117189008 -230.45460629423764 381.38976348192773 -197.27278719184787 377.15908154637305C-164.0909680894581 372.9283996108183 -97.72732988467851 471.97612963145184 -64.54551078228877 462.76817483053867C-31.363691679899034 453.5602200296255 34.999946524880556 307.7261250746224 68.18176562727041 303.49544313906773C101.36358472966026 299.264761203513 167.72722293443974 419.46590090192 200.90904203682953 428.9227193461011C234.09086113921933 438.37953779028214 300.4544993439988 372.18180868101456 333.6363184463886 379.14999069251644C366.8181375487784 386.11817270401826 433.1817757535579 484.6681754381159 466.3635948559478 484.6681754381159C499.5454139583376 484.6681754381159 565.9090521631173 378.9011270492485 599.090871265507 379.14999069251644C632.2726903678968 379.39885433578434 698.6363285726763 493.87613023902907 731.818147675066 486.6590845842593C764.9999667774557 479.4420389294895 831.3636049822355 322.9068073139657 864.5454240846252 321.41362545435817C897.7272431870149 319.9204435947506 964.0908813917945 462.76817483053867 997.2727004941842 474.7136297073989C1030.4545195965738 486.6590845842593 1113.4090673525484 424.19431012401054 1129.9999769037433 416.97726446924077 " transform="rotate(120, 400, 400)"></path><path d="M-311.75006372798555 494.1982817369724C-295.5739269155706 479.6397586057989 -214.69324285349546 381.8550115747501 -182.34096922866544 377.7300966875843C-149.98869560383542 373.60518180041845 -85.28414835417539 470.1767185705361 -52.93187472934534 461.19896263964574C-20.57960110451529 452.2212067087554 44.124946145144804 310.03296412762745 76.4772197699748 305.90804924046165C108.82949339480496 301.7831343532958 173.534040644465 418.9792455592426 205.88631426929499 428.1996435423191C238.2385878941251 437.42004152539573 302.94313514378507 372.8772556438598 335.29540876861506 379.67123310507407C367.64768239344517 386.4652105662884 432.35222964310515 482.5514632320336 464.70450326793525 482.5514632320336C497.05677689276524 482.5514632320336 561.7613241424255 379.4285910528879 594.1135977672553 379.67123310507407C626.4658713920854 379.91387515726035 691.1704186417455 491.52921916292394 723.5226922665754 484.4925996495234C755.8749658914055 477.4559801361229 820.5795131410657 324.8341293109872 852.9317867658958 323.3782769978698C885.2840603907257 321.9224246847525 949.9886076403859 461.19896263964574 982.3408812652158 472.8457811445846C1014.6931548900459 484.4925996495234 1095.573838952121 423.58944455078085 1111.749975764536 416.55282503738033 " transform="rotate(117, 400, 400)"></path><path d="M-293.5000638545642 491.78294841775767C-277.73869978092904 477.59772075148607 -198.9318794127533 382.3202749263616 -167.40915126548302 378.30112708758463C-135.88642311821275 374.2819792488077 -72.84096682367215 468.3773227684095 -41.31823867640185 459.629765707542C-9.795510529131604 450.8822086466745 53.249945765408995 312.33981843942155 84.7726739126793 308.3206706006446C116.29540205994965 304.30152276186766 179.34085835449014 418.49260547535425 210.86358650176044 427.4765829973263C242.38631464903085 436.4605605192983 305.43177094357134 373.5727178654941 336.95449909084164 380.19249077642087C368.47722723811194 386.81226368734764 431.52268353265254 480.43476628474036 463.04541167992284 480.43476628474036C494.56813982719314 480.43476628474036 557.6135961217337 379.9560703153163 589.136324269004 380.19249077642087C620.6590524162742 380.42891123752537 683.7045087108149 489.18232334560787 715.2272368580852 482.3261299735766C746.7499650053553 475.4699366015453 809.7954212998961 326.7614665667977 841.3181494471664 325.34294380017053C872.8408775944365 323.9244210335434 935.8863338889773 459.629765707542 967.4090620362474 470.9779478405593C998.9317901835177 482.3261299735766 1077.7386105516935 422.9845942363403 1093.4999746253286 416.128400864309 " transform="rotate(114, 400, 400)"></path><path d="M-275.2500639811428 489.36760365445116C-259.9034726462875 475.5556714530814 -183.17051597201112 382.78552683388125 -152.47733330230056 378.8721460434932C-121.78415063259004 374.95876525310507 -60.39778529316891 466.57791552219106 -29.704602623458413 458.0605573313464C0.988580046252082 449.5431991405017 62.37494538567324 314.64666130712385 93.0681280553838 310.73328051673576C123.7613107250944 306.81989972634767 185.1476760645155 418.0059539473741 215.840858734226 426.7535110082416C246.5340414039366 435.5010680691091 307.9204067433575 374.2681686430366 338.6135894130681 380.7137370036758C369.3067720827787 387.15930536431506 430.6931374221998 478.31805789335533 461.3863200919104 478.31805789335533C492.0795027616209 478.31805789335533 553.4658681010421 380.483538133653 584.1590507707526 380.7137370036758C614.852233440463 380.94393587369865 676.2385987798842 486.8354160842 706.9317814495948 480.159648853538C737.6249641193051 473.48388162287597 799.0113294587266 328.68879237851644 829.704512128437 327.30759915837945C860.3976947981475 325.9264059382425 921.7840601375688 458.0605573313464 952.4772428072793 469.11010309244216C983.1704254769895 480.159648853538 1059.9033821512658 422.3797324778079 1075.2499734861212 415.70396524714585 " transform="rotate(111, 400, 400)"></path><path d="M-257.00006410772136 486.9522665205392C-242.06824551164596 473.5136297840713 -167.40915253126894 383.2507863707955 -137.54551533911814 379.4431726287963C-107.68187814696736 375.63555888679707 -47.95460376266578 464.77851590536716 -18.09096657051498 456.4913565845453C11.772670621635825 448.2041972637235 71.49994500593743 316.95351180422074 101.36358219808824 313.1458980622215C131.2272193902391 309.3382843202223 190.95449377454065 417.51931004878855 220.81813096669157 426.0304466485515C250.68176815884226 434.5415832483145 310.40904254314387 374.96362704997364 340.2726797352947 381.2349908603253C370.1363169274455 387.50635467067696 429.8635913117471 476.20135713136483 459.7272285038979 476.20135713136483C489.5908656960487 476.20135713136483 549.3181400803504 381.0110135813842 579.1817772725011 381.2349908603253C609.0454144646518 381.45896813926646 668.7726888489534 484.4885164521867 698.6363260411042 477.9931753628939C728.4999632332551 471.49783427360114 788.2272376175567 330.6161258196297 818.0908748097077 329.2722621459829C847.9545120018583 327.92839847233614 907.68178638616 456.4913565845453 937.5454235783106 467.24226597371967C967.4090607704616 477.9931753628939 1042.0681537508385 421.77487834867003 1056.9999723469139 415.2795372593772 " transform="rotate(108, 400, 400)"></path><path d="M-238.75006423429994 484.53691031314077C-224.23301837700444 471.47156904157487 -151.64778909052677 383.7160268342234 -122.61369737593571 380.014180140613C-93.57960566134469 376.31233344700263 -35.511422232162545 462.979097215057 -6.477330517571545 454.92213676425797C22.55676119701951 446.8651763134589 80.62494462620162 319.26034322783124 109.65903634079274 315.55849653422086C138.6931280553838 311.8566498406105 196.7613114845659 417.0326470767166 225.7954031991569 425.30736321537506C254.82949491374802 433.5820793540335 312.89767834293 375.6590663834244 341.93177005752113 381.75622564348845C370.96586177211225 387.8533849035526 429.03404520129436 474.084637295888 458.06813691588536 474.084637295888C487.1022286304765 474.084637295888 545.1704120596587 381.538469955629 574.2045037742497 381.75622564348845C603.2385954888407 381.9739813313479 661.3067789180228 482.141597746687 690.3408706326138 475.8266827987635C719.3749623472049 469.51176785083993 777.4431457763872 332.54344018725664 806.4772374909783 331.2369060601C835.5113292055692 329.93037193294344 893.5795126347514 454.92213676425797 922.6136043493423 465.37440978151074C951.6476960639334 475.8266827987635 1024.2329253504108 421.1700051460458 1038.7499712077065 414.8550901981223 " transform="rotate(105, 400, 400)"></path><path d="M-220.50006436087855 482.1215808086233C-206.39779124236293 469.42953500195927 -135.8864256497846 384.18129400053215 -107.68187941275329 380.58521435531065C-79.47733317572201 376.9891347100891 -23.068240701659363 461.1797052276276 5.136305535371889 453.35294364685143C33.3408517724032 445.5261820660752 89.74994424646587 321.5672013543226 117.95449048349718 317.9711217091011C146.1590367205285 314.3750420638796 202.56812919459117 416.54601080752553 230.77267543162247 424.5843064850795C258.9772216686538 432.62260216263337 315.3863141427163 376.3545324197559 343.5908603797477 382.2774871295325C371.795406616779 388.20044183930906 428.20449909084164 471.9679441632921 456.40904532787295 471.9679441632921C484.61359156490425 471.9679441632921 541.0226840389669 382.06595303275475 569.2272302759983 382.2774871295325C597.4317765130295 382.48902122631023 653.8408689870922 479.79470574406827 682.0454152241234 473.66021693751395C710.2499614611546 467.52572813095964 766.6590539352176 334.47078125776443 794.8636001722489 333.20157667709805C823.0681464092802 331.9323720964316 879.4772388833426 453.35294364685143 907.6817851203741 463.50658029218266C935.8863313574052 473.66021693751395 1006.3976969499834 420.5651586463025 1020.4999700684991 414.4306698397482 " transform="rotate(102, 400, 400)"></path><path d="M-202.25006448745717 479.70623223061955C-188.56256410772136 467.38748188885734 -120.12506220904243 384.6465420933545 -92.75006144957086 381.1562294965219C-65.37506069009933 377.66591689968925 -10.625059171156181 459.3802941667119 16.74994158831538 451.78373145595856C44.12494234778694 444.18716874520516 98.87494386673006 323.87404040732764 126.24994462620168 320.38372781049503C153.6249453856733 316.89341521366237 208.37494690461637 416.0593554648481 235.74994766408798 423.86123068129757C263.12494842355954 431.66310589774696 317.87494994250267 377.0499793826012 345.24995070197417 382.7987295420902C372.6249514614458 388.5474797015792 427.3749529803889 469.85123195720973 454.7499537398604 469.85123195720973C482.12495449933215 469.85123195720973 536.8749560182753 382.59341703639416 564.2499567777468 382.7987295420902C591.6249575372183 383.00404204778624 646.3749590561614 477.44779466796314 673.749959815633 471.4937320027781C701.1249605751045 465.539669337593 755.874962094048 336.3981032547859 783.2499628535193 335.1662282206097C810.624963612991 333.93435318643344 865.3749651319342 451.78373145595856 892.7499658914055 461.6387317293683C920.124966650877 471.4937320027781 988.5624685495561 419.9602930730728 1002.2499689292918 414.00623040788776 " transform="rotate(99, 400, 400)"></path><path d="M-184.00006461403575 477.2909027261021C-170.72733697307984 465.34544784924174 -104.36369876830025 385.1118092596633 -77.81824348638844 381.7272637112195C-51.272788204476626 378.3427181627758 1.8181223593470293 457.58090217928253 28.36357764125887 450.214538338552C54.90903292317063 442.8481744978215 107.99994348699431 326.180898533819 134.54539876890613 322.7963529853753C161.090854050818 319.4118074369315 214.18176461464162 415.5727191956571 240.7272198965535 423.13817395100193C267.2726751784653 430.7036287063468 320.36358574228893 377.7454454189327 346.90904102420075 383.3199910281342C373.45449630611256 388.8945366373357 426.5454068699362 467.7345388246138 453.090862151848 467.7345388246138C479.6363174337599 467.7345388246138 532.7272279975836 383.1209001135199 559.2726832794954 383.3199910281342C585.8181385614071 383.5190819427486 638.9090491252308 475.1009026653444 665.4545044071426 469.3272661415285C691.9999596890543 463.5536296177127 745.0908702528782 338.3254443252937 771.63632553479 337.1308988376077C798.1817808167018 335.9363533499216 851.2726913805254 450.214538338552 877.8181466624371 459.7709022400403C904.363601944349 469.3272661415285 970.7272401491284 419.3554465733295 983.9999677900844 413.5818100495137 " transform="rotate(96, 400, 400)"></path><path d="M-165.75006474061433 474.875550333401C-152.8921098384383 463.30339092144254 -88.60233532755808 385.5770535377884 -62.886425523206015 382.2982750377335C-37.17051571885395 379.0194965376786 14.26130388985024 455.78148730366956 39.977213694202305 448.6453223329619C65.69312349855431 441.5091573622542 117.1249431072585 328.4877337721268 142.84085291161063 325.2089552720719C168.55676271596275 321.93017677201703 219.98858232466688 415.0860600382824 245.70449212901894 422.41509433252276C271.42040193337107 429.7441286267631 322.8522215420751 378.4408885670807 348.5681313464272 383.84122962599463C374.28404115077933 389.2415706849086 425.71586075948346 465.61782280383426 451.4317705638356 465.61782280383426C477.1476803681876 465.61782280383426 528.579499976892 383.64836030246204 554.295409781244 383.84122962599463C580.011319585596 384.0340989495273 631.4431391943002 472.753987774542 657.1590489986522 467.1607773920954C682.8749588030041 461.56756700964877 734.3067784117086 340.2527625076179 760.0226882160605 339.09554656642206C785.7385980204127 337.9383306252262 837.1704176291169 448.6453223329619 862.886327433469 457.90304986252863C888.6022372378209 467.1607773920954 952.892011748701 418.75057718540256 965.749966650877 413.157366802956 " transform="rotate(93, 400, 400)"></path><path d="M-147.5000572377984 472.46021701418624C-135.05687507440223 461.26135306712973 -72.84096425742138 386.0423168893999 -47.95459993062906 382.8693054377339C-23.06823560383674 379.6962939860679 26.704493049747953 453.982091501543 51.59085737654027 447.07612540085813C76.47722170333259 440.1701593001732 126.24995035691728 330.7945880839209 151.13631468370966 327.6215766322549C176.02267901050197 324.44856518058884 225.7954076640866 414.5994199543941 250.68177199087904 421.6920337875299C275.56813631767136 428.78464762066574 325.340864971256 379.13635078871505 350.2272292980483 384.36248729734143C375.11359362484063 389.5886238059678 424.88632227842527 463.501125856541 449.7726866052176 463.501125856541C474.65905093201 463.501125856541 524.4317795855947 384.17583956489045 549.318143912387 384.36248729734143C574.2045082391793 384.54913502979235 623.9772368927639 470.40709195722593 648.8636012195562 464.99430771614857C673.7499655463486 459.5815234750712 723.5226941999334 342.1800997634284 748.4090585267257 341.06021336872277C773.295422853518 339.94032697401707 823.0681515071028 447.07612540085813 847.9545158338949 456.0352165585033C872.8408801606874 464.99430771614857 935.056790977668 418.145726870962 947.4999731410644 412.7329426298847 " transform="rotate(90, 400, 400)"></path><path d="M-129.250057364377 470.04488369497153C-117.22164793976071 459.21931521281687 -57.0796008166792 386.50758024101134 -33.02278196744663 383.4403358377342C-8.965963118214063 380.373091434457 39.147674580251135 452.18269569941634 63.204493429483705 445.50692846875427C87.26131227871628 438.83116123809225 135.37494997718147 333.101442395715 159.4317688264141 330.03419799243784C183.48858767564673 326.9669535891607 231.60222537411187 414.11277987050573 255.6590442233445 420.96897324253706C279.7158630725771 427.82516661456833 327.82950077104215 379.8318130103493 351.8863196202748 384.8837449686882C375.9431384695074 389.935676927027 424.05677616797254 461.3844289092478 448.11359501720517 461.3844289092478C472.1704138664378 461.3844289092478 520.284051564903 384.7033188273189 544.3408704141356 384.8837449686882C568.3976892633681 385.0641711100574 616.5113269618333 468.06019613990986 640.5681458110658 462.82783804020175C664.6249646602984 457.59547994049365 712.7386023587638 344.10743701923894 736.7954212079964 343.0248801710235C760.8522400572289 341.94232332280797 808.9658777556941 445.50692846875427 833.0226966049268 454.167383254478C857.0795154541593 462.82783804020175 917.2215625772405 417.5408765565214 929.249972001857 412.3085184568133 " transform="rotate(87, 400, 400)"></path><path d="M-111.00002697337747 467.6295313022705C-99.38639028754105 457.17725828501773 -41.318206858358906 386.9728245191365 -18.090933486686083 384.0113471642482C5.136339884986739 381.04986980935996 51.59088662833244 450.3832808238034 74.81816000000529 443.9377124631642C98.04543337167809 437.49214410252495 144.49998011502385 335.4082776340228 167.72725348669667 332.4468002791345C190.9545268583696 329.48532292424625 237.4090736017152 413.6261207131311 260.6363469733881 420.2458936240579C283.86362034506095 426.86566653498465 330.31816708840654 380.5272561584973 353.54544046007936 385.4049835665486C376.7727138317523 390.2827109745999 423.22726057509794 459.2677128884683 446.4545339467709 459.2677128884683C469.6818073184437 459.2677128884683 516.1363540617895 385.23077901626107 539.3636274334622 385.4049835665486C562.590900805135 385.5791881168361 609.0454475484809 465.71328124910747 632.2727209201536 460.6613492907686C655.4999942918263 455.60941733242976 701.9545410351723 346.03475520156314 725.181814406845 344.98952789983787C748.4090877785179 343.9443005981126 794.8636345218636 443.9377124631642 818.0909078935364 452.2995308769664C841.3181812652092 460.6613492907686 899.3863646943912 416.9360071685945 911.0000013802278 411.8840752102557 " transform="rotate(84, 400, 400)"></path><path d="M-92.75002709995607 465.214201797753C-81.55116315289952 455.1352242454021 -25.556843417616733 387.4380916854453 -3.159115523503658 384.58238137894585C19.238612370609417 381.7266710724464 64.03406815883565 448.583888836374 86.43179605294873 442.3685193457576C108.82952394706183 436.15314985514124 153.62497973528804 337.71513576051416 176.02270762940117 334.85942545401474C198.4204355235143 332.0037151475153 243.2158913117405 413.13948444394003 265.61361920585364 419.52283689376225C288.0113470999667 425.9061893435845 332.80680288819286 381.22272219482886 355.20453078230594 385.9262450525926C377.60225867641907 390.62976791035635 422.3977144646452 457.15101975587226 444.79544235875835 457.15101975587226C467.1931702528715 457.15101975587226 511.98862604109775 385.75826209338675 534.3863539352109 385.9262450525926C556.7840818293239 386.09422801179846 601.5795376175502 463.36638924648867 623.9772655116632 458.49488342951906C646.3749934057763 453.62337761254946 691.1704491940026 347.9620962720709 713.5681770881157 346.95419851683585C735.9659049822286 345.94630076160075 780.761360770455 442.3685193457576 803.159088664568 450.4317013876383C825.556816558681 458.49488342951906 881.5511362939637 416.3311606688511 892.7500002410204 411.45965485188157 " transform="rotate(81, 400, 400)"></path><path d="M-74.49999670895653 462.79885321974916C-63.71590550067987 453.0931711323002 -9.795449459296435 387.90333977826765 11.772732957256892 385.1533965201571C33.34091537381025 382.4034532620466 76.47728020691696 446.7844777754583 98.04546262347031 440.7993071548648C119.61364504002364 434.8141365342712 162.75000987313035 340.0219748135192 184.31819228968374 337.27203155540866C205.88637470623712 334.5220882972981 249.02273953934383 412.6528291012626 270.5909219558972 418.79976108998034C292.1591043724506 424.94669307869805 335.2954692055572 381.91816915767413 356.8636516221106 386.4474874651503C378.43183403866396 390.9768057726265 421.5681988717706 455.03430754979 443.13638128832406 455.03430754979C464.7045637048774 455.03430754979 507.84092853798415 386.28572609702616 529.4091109545375 386.4474874651503C550.9772933710908 386.6092488332745 594.1136582041976 461.01947817038354 615.6818406207509 456.3283984947832C637.2500230373041 451.63731881918284 680.3863878704111 349.8894182690924 701.9545702869644 348.9188500603475C723.5227527035177 347.9482818516026 766.6591175366244 440.7993071548648 788.2272999531777 448.563852824824C809.7954823697311 456.3283984947832 863.7159384111144 415.7262950956215 874.5000296193912 411.03521542002113 " transform="rotate(78, 400, 400)"></path><path d="M-56.24999683553513 460.3835160858372C-45.880678366038325 451.05112946329007 5.965913981445738 388.3685993151819 26.704550920439317 385.7244231054602C47.443187859432925 383.0802468957385 88.92046173742014 444.98507815863445 109.65909867641375 439.2301064080637C130.39773561540736 433.47513465749296 171.8750094933946 342.328825310616 192.61364643238824 339.6846491008944C213.35228337138187 337.04047289117267 254.82955724936903 412.16618520267707 275.5681941883627 418.0766967302902C296.30683112735636 423.9872082579034 337.78410500534346 382.61362756461114 358.5227419443371 386.9687413217998C379.2613788833308 391.32385507898846 420.738652761318 452.9176067877995 441.47728970031153 452.9176067877995C462.21592663930517 452.9176067877995 503.69320051729255 386.81320154475736 524.4318374562861 386.9687413217998C545.1704743952796 387.12428109884223 586.6477482732669 458.6725785383702 607.3863852122604 454.1619250041391C628.125022151254 449.651271469908 669.6022960292414 351.8167517102056 690.3409329682349 350.88351304795094C711.0795699072286 349.9502743856962 752.5568437852157 439.2301064080637 773.2954807242095 446.69601570610143C794.034117663203 454.1619250041391 845.8807100106869 415.12144096648365 856.2500284801838 410.61078743225255 " transform="rotate(75, 400, 400)"></path><path d="M-37.99999696211373 457.9681713225307C-28.045451231396797 449.0090801648854 21.727277422187882 388.8338512227016 41.63636888362174 386.29544206136876C61.5454603450556 383.75703290003594 101.36364326792335 443.185670912416 121.27273472935721 437.6608980318681C141.18182619079107 432.13612515132024 181.00000911365885 344.6356681783184 200.90910057509268 342.09725901698556C220.81819203652657 339.55884985565274 260.63637495939435 411.6795336746969 280.5454664208282 417.3536247412056C300.4545578822621 423.02771580771423 340.27274080512973 383.30907834215367 360.1818322665636 387.4899875490548C380.0909237279975 391.6708967559559 419.90910665086517 450.8008983964145 439.8181981122991 450.8008983964145C459.72728957373306 450.8008983964145 499.5454724966007 387.340669363094 519.4545639580347 387.4899875490548C539.3636554194684 387.6393057350155 579.1818383423363 456.32567127696234 599.09092980377 451.9954438841005C619.0000212652038 447.66521649123865 658.8182041880718 353.74407752192434 678.7272956495057 352.84816840615986C698.6363871109394 351.9522592903953 738.4545700338073 437.6608980318681 758.363661495241 444.8281709579843C778.2727529566748 451.9954438841005 828.0454816102595 414.5165792079512 838.0000273409764 410.1863518150894 " transform="rotate(72, 400, 400)"></path><path d="M-19.749997088692325 455.5528380033159C-10.210224096755269 446.96704231057254 37.48864086293007 389.299114574313 56.56818684680417 386.8664724613691C75.64773283067831 384.43383034842515 113.80682479842656 441.3862751102894 132.88637078230065 436.09170109976435C151.96591676617476 430.7971270892392 190.12500873392304 346.9425224901125 209.20455471779718 344.50988037716854C228.28410070167132 342.07723826422455 266.44319266941955 411.1928935908086 285.5227386532937 416.63056419621273C304.6022846371678 422.0682348016168 342.761376604916 384.00454056378794 361.84092258879014 388.0112452204015C380.9204685726643 392.0179498770151 419.0795605404125 448.68420144912125 438.1591065242867 448.68420144912125C457.23865250816084 448.68420144912125 495.3977444759091 387.86814862552245 514.4772904597831 388.0112452204015C533.5568364436573 388.1543418152806 571.7159284114056 453.9787754596463 590.7954743952796 449.8289742081537C609.8750203791536 445.6791729566611 648.0341123469021 355.67141477773487 667.1136583307762 354.81283520846057C686.1932043146503 353.9542556391862 724.3522962823986 436.09170109976435 743.4318422662726 442.96033765395896C762.5113882501468 449.8289742081537 810.210253209832 413.91172889351066 819.7500262017691 409.761927642018 " transform="rotate(69, 400, 400)"></path><path d="M-1.4999972152709091 453.13748942531214C7.625003037886273 444.92498919747067 53.25000430367224 389.76436266713546 71.50000480998659 387.43748760258035C89.75000531630099 385.1106125380253 126.25000632892974 439.58686404937373 144.5000068352441 434.5224889088714C162.75000734155847 429.45811376836923 199.25000835418723 349.2493615431175 217.50000886050162 346.9224864785624C235.75000936681602 344.59561141400735 272.25001037944475 410.70623824813117 290.50001088575914 415.90748839243076C308.7500113920736 421.10873853673036 345.25001240470226 384.6999875266332 363.50001291101665 388.5324876329592C381.7500134173311 392.36498773928525 418.2500144299598 446.56748924303895 436.5000149362742 446.56748924303895C454.7500154425886 446.56748924303895 491.2500164552173 388.39561262916186 509.5000169615316 388.5324876329592C527.7500174678461 388.66936263675655 564.2500184804749 451.63186438354114 582.5000189867892 447.6624892734178C600.7500194931035 443.6931141632944 637.2500205057324 357.59873677475633 655.5000210120468 356.7774867519722C673.7500215183611 355.95623672918805 710.2500225309899 434.5224889088714 728.5000230373043 441.0924890911446C746.7500235436186 447.6624892734178 792.3750248094044 413.30686332028097 801.5000250625617 409.33748821015763 " transform="rotate(66, 400, 400)"></path><path d="M16.750002658150493 450.7221522914001C25.4602301725278 442.88294752846053 69.0113677444144 390.22962220404963 86.43182277316902 388.0085141878834C103.85227780192366 385.78740617171724 138.69318785943292 437.7874644325498 156.11364288818757 432.9532881620704C173.5340979169422 428.119111891591 208.37500797445148 351.55621204021435 225.79546300320612 349.3351040240481C243.21591803196077 347.11399600788195 278.05682808947 410.21959434954556 295.47728311822465 415.18442403274065C312.8977381469793 420.14925371593574 347.7386482044885 385.3954459335702 365.1591032332432 389.0537414896087C382.5795582619978 392.7120370456472 417.42046831950705 444.45078848104845 434.8409233482617 444.45078848104845C452.26137837701634 444.45078848104845 487.1022884345257 388.92308807689307 504.5227434632802 389.0537414896087C521.9431984920349 389.18439490232436 556.7841085495442 449.28496475152787 574.2045635782988 445.4960157827737C591.6250186070534 441.7070668140196 626.4659286645627 359.5260702158696 643.8863836933174 358.74214973957567C661.3068387220719 357.9582292632817 696.1477487795813 432.9532881620704 713.5682038083359 439.22465197242207C730.9886588370905 445.4960157827737 774.539796408977 412.70200919114313 783.2500239233544 408.913060222389 " transform="rotate(63, 400, 400)"></path><path d="M35.000002531571894 448.3068075280936C43.29545730716933 440.84089823005587 84.77273118515657 390.69487411156933 101.36364073635144 388.579533143792C117.95455028754634 386.46419217601465 151.13636938993614 435.9880571863314 167.727278941131 431.3840797858748C184.31818849232587 426.7801023854182 217.50000759471567 353.86305490791665 234.09091714591057 351.7477139401393C250.68182669710552 349.63237297236196 283.86364579949526 409.7329428215655 300.45455535069016 414.461352043656C317.04546490188505 419.18976126574654 350.2272840042748 386.09089671111275 366.8181935554697 389.5749877168637C383.4091031066646 393.0590787226146 416.5909222090543 442.3340800896634 433.1818317602493 442.3340800896634C449.7727413114442 442.3340800896634 482.9545604138341 389.45055589522974 499.5454699650288 389.5749877168637C516.1363795162238 389.69941953849764 549.3181986186136 446.93805749012 565.9091081698084 443.3295346627351C582.5000177210032 439.7210118353502 615.6818368233932 361.4533960275883 632.272746374588 360.7068050977846C648.8636559257828 359.9602141679808 682.0454750281726 431.3840797858748 698.6363845793675 437.35680722430493C715.2272941305623 443.3295346627351 756.7045680085496 412.0971474326107 765.0000227841471 408.4886246052258 " transform="rotate(60, 400, 400)"></path><path d="M53.250002404993296 445.89147039418157C61.13068444181087 438.7988565610458 100.53409462589875 391.16013364848357 116.29545869953387 389.15055972909505C132.05682277316902 387.1409858097066 163.57955092043932 434.1886575695075 179.34091499407447 429.81487903907373C195.1022790677096 425.44110050864 226.6250072149799 356.16990540501354 242.38637128861504 354.160331485625C258.1477353622502 352.15075756623656 289.67046350952046 409.24629892297986 305.4318275831556 413.7382876839659C321.1931916567908 418.23027644495187 352.71591980406106 386.78635511804976 368.4772838776962 390.09624157351317C384.23864795133136 393.4061280289765 415.76137609860166 440.2173793276729 431.5227401722368 440.2173793276729C447.28410424587196 440.2173793276729 478.80683239314226 389.9780313429609 494.5681964667774 390.09624157351317C510.32956054041256 390.21445180406545 541.8522886876829 444.59115785810667 557.613652761318 441.16306117209103C573.375016834953 437.7349644860754 604.8977449822235 363.3807294687016 620.6591090558586 362.671468085388C636.4204731294936 361.9622067020744 667.9432012767641 429.81487903907373 683.7045653503991 435.4889701055824C699.4659294240342 441.16306117209103 738.8693396081221 411.4922933034729 746.7500216449397 408.06419661745724 " transform="rotate(57, 400, 400)"></path><path d="M71.50000227841471 443.4761332602696C78.9659115764524 436.75681489203566 116.29545806664092 391.62539318539774 131.22727666271632 389.7215863143981C146.1590952587917 387.81777944339854 176.0227324509425 432.3892579526836 190.9545510470179 428.24567829227266C205.8863696430933 424.10209863186174 235.7500068352441 358.47675590211037 250.6818254313195 356.57294903111074C265.6136440273949 354.6691421601111 295.4772812195457 408.75965502439425 310.4090998156212 413.0152233242758C325.3409184116965 417.27079162415725 355.2045556038473 387.4818135249868 370.1363741999227 390.61749543016265C385.06819279599813 393.7531773353385 414.93182998814893 438.1006785656824 429.86364858422434 438.1006785656824C444.79546718029974 438.1006785656824 474.6591043724506 390.5055067906921 489.59092296852594 390.61749543016265C504.5227415646013 390.7294840696332 534.386378756752 442.24425822609334 549.3181973528275 438.99658768144695C564.250015948903 435.74891713680057 594.1136531410538 365.30806290981485 609.0454717371292 364.6361310729915C623.9772903332046 363.96419923616804 653.8409275253554 428.24567829227266 668.7727461214307 433.62113298685983C683.7045647175062 438.99658768144695 721.0341112076947 410.887439174335 728.5000205057323 407.6397686296886 " transform="rotate(54, 400, 400)"></path><path d="M89.75000215183611 441.0607923116603C96.80113871109394 434.71476940832827 132.0568215073831 392.0906489076147 146.15909462589875 390.29260908500396C160.26136774441437 388.4945692623932 188.4659139814457 430.58985452116247 202.56818709996134 426.6764737307743C216.670460218477 422.76309294038623 244.87500645550833 360.78360258450994 258.977279574024 358.9855627618992C273.07955269253966 357.18752293928844 301.284098929571 408.2730073111114 315.3863720480866 412.29215514988834C329.4886451666023 416.3113029886653 357.69319140363353 388.1772681172266 371.79546452214925 391.13874547211486C385.8977376406649 394.10022282700317 414.1022838776962 435.98397398899465 428.20455699621186 435.98397398899465C442.3068301147275 435.98397398899465 470.5113763517588 391.03297842372604 484.61364947027454 391.13874547211486C498.71592258879014 391.24451252050375 526.9204688258214 439.8973547793828 541.0227419443371 436.8301103761056C555.1250150628528 433.7628659728284 583.3295612998842 367.23539253623085 597.4318344183998 366.60079024589766C611.5341075369155 365.96618795556446 639.7386537739467 426.6764737307743 653.8409268924624 431.75329205343996C667.943200010978 436.8301103761056 703.1988828072671 410.2825812304999 710.250019366525 407.21533682722276 " transform="rotate(51, 400, 400)"></path><path d="M108.00000202525752 438.64545136305105C114.63636584573547 432.67272392462087 147.81818494812526 392.5559046298316 161.09091258908117 390.86363185560975C174.36364023003708 389.1713590813879 200.90909551194892 428.79045108964124 214.18182315290483 425.10726916927604C227.4545507938607 421.4240872489107 254.00000607577255 363.0904492669095 267.27273371672845 361.39817649268764C280.5454613576844 359.7059037184657 307.09091663959623 407.78635959782855 320.36364428055214 411.56908697550097C333.63637192150804 415.3518143531734 360.18182720341986 388.87272270946636 373.45455484437576 391.65999551406713C386.72728248533167 394.44726831866785 413.2727377672435 433.8672694123069 426.5454654081994 433.8672694123069C439.81819304915535 433.8672694123069 466.36364833106717 391.5604500567599 479.6363759720231 391.65999551406713C492.9091036129789 391.7595409713743 519.4545588948909 437.5504513326722 532.7272865358467 434.66363307076426C546.0000141768026 431.77681480885633 572.5454694587145 369.16272216264684 585.8181970996704 368.56544941880384C599.0909247406263 367.96817667496083 625.6363800225381 425.10726916927604 638.909107663494 429.88545112002015C652.1818353044499 434.66363307076426 685.3636544068396 409.6777232866648 692.0000182273176 406.79090502475685 " transform="rotate(48, 400, 400)"></path><path d="M126.25000189867892 436.23011041444175C132.471592980377 430.63067844091347 163.57954838886744 393.0211603520486 176.0227305522636 391.43465462621555C188.46591271565975 389.84814890038257 213.3522770424521 426.9910476581201 225.79545920584826 423.5380646077777C238.23864136924442 420.0850815574353 263.12500569603674 365.39729594930907 275.56818785943295 363.8107902234761C288.0113700228291 362.22428449764305 312.89773434962143 407.2997118845457 325.34091651301765 410.8460188011136C337.7840986764138 414.3923257176815 362.6704630032061 389.56817730170616 375.1136451666023 392.18124555601935C387.55682732999844 394.79431381033254 412.44319165679076 431.7505648356191 424.8863738201869 431.7505648356191C437.32955598358313 431.7505648356191 462.21592031037545 392.08792168979386 474.6591024737716 392.18124555601935C487.10228463716777 392.2745694222448 511.9886489639601 435.2035478859616 524.4318311273562 432.4971557654229C536.8750132907523 429.79076364488424 561.7613776175449 371.09005178906284 574.204559780941 370.53010859171C586.6477419443371 369.9701653943572 611.5341062711295 423.5380646077777 623.9772884345256 428.0176101866003C636.4204705979218 432.4971557654229 667.5284260064121 409.07286534282963 673.7500170881103 406.36647322229095 " transform="rotate(45, 400, 400)"></path><path d="M144.49998651331128 433.8147694658325C150.30680485622946 428.58863295720613 179.34089657082055 393.48641607426555 190.95453325665696 392.0056773968214C202.56816994249337 390.52493871937725 225.79544331416622 425.19164422659895 237.40908000000263 421.96886004627936C249.02271668583904 418.74607586595977 272.2499900575119 367.7041426317087 283.86362674334833 366.22340395426454C295.4772634291848 364.7426652768204 318.70453680085757 406.8130641712628 330.31817348669404 410.1229506267262C341.9318101725305 413.43283708218956 365.15908354420327 390.2636318939459 376.7727202300397 392.70249559797156C388.38635691587615 395.1413593019972 411.613630287549 429.6338602589314 423.22726697338544 429.6338602589314C434.84090365922185 429.6338602589314 458.06817703089473 392.6153933228278 469.6818137167311 392.70249559797156C481.2954504025675 392.7895978731153 504.52272377424043 432.856644439251 516.1363604600767 430.3306784600816C527.7499971459131 427.80471248091214 550.9772705175861 373.01738141547884 562.5909072034225 372.4947677646162C574.204543889259 371.97215411375356 597.4318172609318 421.96886004627936 609.0454539467682 426.14976925318047C620.6590906326046 430.3306784600816 649.6931823471956 408.46800739899453 655.5000006901139 405.9420414198251 " transform="rotate(42, 400, 400)"></path><path d="M162.74998638673267 431.3994285172232C168.142031990871 426.54658747349873 195.10226001156272 393.95167179648246 205.88635121983938 392.5767001674272C216.67044242811608 391.2017285383719 238.2386248446694 423.3922407950778 249.0227160529461 420.399655484781C259.80680726122273 417.40707017448426 281.3749896777761 370.01098931410826 292.15908088605283 368.63601768505293C302.9431720943295 367.26104605599767 324.5113545108828 406.32641645798 335.29544571915955 409.39988245233883C346.07953692743627 412.4733484466976 367.64771934398954 390.9590864861857 378.43181055226626 393.2237456399238C389.2159017605429 395.4884047936619 410.78408417709625 427.51715568224364 421.56817538537297 427.51715568224364C432.35226659364963 427.51715568224364 453.920449010203 393.1428649558617 464.7045402184797 393.2237456399238C475.48863142675634 393.3046263239859 497.0568138433097 430.5097409925404 507.8409050515864 428.1642011547402C518.624996259863 425.81866131694005 540.1931786764164 374.94471104189483 550.9772698846932 374.4594269375224C561.7613610929698 373.9741428331499 583.3295435095231 420.399655484781 594.1136347177999 424.2819283197606C604.8977259260764 428.1642011547402 631.8579539467681 407.8631494551594 637.2499995509065 405.5176096173592 " transform="rotate(39, 400, 400)"></path><path d="M180.99998626015406 428.98408566126534C185.97725912551255 424.5045400824427 210.86362345230486 394.4169256113508 220.8181691830218 393.14772103068435C230.77271491373875 391.87851645001797 250.6818063751726 421.59283545620804 260.63635210588956 418.83044901593405C270.5908978366065 416.0680625756601 290.49998929804036 372.3178340891592 300.4545350287573 371.04862950849275C310.40908075947425 369.77942492782637 330.3181722209081 405.83976683734846 340.27271795162505 408.67681237060276C350.227263682342 411.5138579038571 370.1363551437758 391.6545391710768 380.0909008744927 393.74499377452736C390.0454466052097 395.8354483779779 409.9545380666435 425.40044919820724 419.9090837973605 425.40044919820724C429.86362952807747 425.40044919820724 449.7727209895113 393.670334681547 459.7272667202283 393.74499377452736C469.68181245094513 393.8196528675078 489.5909039123791 428.16283563848117 499.54544964309594 425.99772194205025C509.49999537381285 423.8326082456193 529.4090868352469 376.8720387609622 539.3636325659638 376.42408420307993C549.3181782966806 375.97612964519766 569.2272697581145 418.83044901593405 579.1818154888315 422.41408547899215C589.1363612195483 425.99772194205025 614.0227255463407 407.25828960397564 618.9999984116992 405.09317590754466 " transform="rotate(36, 400, 400)"></path><path d="M199.24998613357548 426.56874471265604C203.81248626015406 422.4624945987353 226.62498689304707 394.8821813335677 235.74998714620423 393.7187438012902C244.87498739936143 392.55530626901265 263.1249879056758 419.79343202468687 272.249988158833 417.2612444544357C281.37498841199016 414.7290568841846 299.62498891830455 374.62468077155876 308.7499891714617 373.4612432392812C317.87498942461895 372.2978057070037 336.12498993093334 405.3531191240656 345.2499901840905 407.9537441962154C354.37499043724773 410.5543692683652 372.62499094356207 392.3499937633166 381.7499911967193 394.26624381647963C390.87499144987646 396.1824938696426 409.1249919561908 423.2837446215195 418.2499922093481 423.2837446215195C427.37499246250525 423.2837446215195 445.6249929688196 394.19780631458093 454.74999322197675 394.26624381647963C463.874993475134 394.3346813183783 482.12499398144837 425.81593219177057 491.24999423460554 423.8312446367089C500.3749944877627 421.84655708164723 518.6249949940772 378.7993683873782 527.7499952472343 378.3887433759861C536.8749955003915 377.978118364594 555.1249960067059 417.2612444544357 564.2499962598631 420.54624454557234C573.3749965130203 423.8312446367089 596.1874971459131 406.6534316601405 600.7499972724918 404.6687441050788 " transform="rotate(33, 400, 400)"></path><path d="M217.4999860069969 424.15340567139543C221.6477133947956 420.4204510223766 242.3863503337892 395.3474389631333 250.68180510938666 394.28976847924463C258.9772598849841 393.23209799535596 275.568169436179 417.9940305005143 283.8636242117764 415.692041800286C292.15907898737385 413.39005310005774 308.7499885385688 376.93152936130696 317.0454433141662 375.8738588774183C325.3408980897637 374.8161883935296 341.9318076409586 404.86647331813134 350.227262416556 407.23067792917664C358.52271719215344 409.59488254022193 375.11362674334833 393.045450262905 383.40908151894575 394.7874957657805C391.70453629454323 396.5295412686559 408.2954458457381 421.16704195218034 416.59090062133555 421.16704195218034C424.886355396933 421.16704195218034 441.477264948128 394.7252798549635 449.77271972372534 394.7874957657805C458.0681744993228 394.84971167659745 474.6590840505177 423.4690306524086 482.95453882611514 421.6647692387162C491.24999360171256 419.8605078250238 507.8409031529075 380.72669992114277 516.1363579285049 380.3534044562409C524.4318127041024 379.980108991339 541.0227222552973 415.692041800286 549.3181770308947 418.6784055195011C557.6136318064921 421.6647692387162 578.3522687454857 406.048575623654 582.4999961332844 404.24431420996154 " transform="rotate(30, 400, 400)"></path><path d="M235.7499858804183 421.73806472278613C239.48294052943714 418.3784055386692 258.1477137745314 395.81269468535027 265.6136230725691 394.8607912498504C273.0795323706068 393.90888781435063 288.0113509666822 416.19462706899316 295.4772602647199 414.1228372387877C302.9431695627576 412.05104740858224 317.874988158833 379.2383760437065 325.3408974568707 378.28647260820674C332.8068067549084 377.33456917270695 347.7386253509838 404.3798256048485 355.2045346490215 406.50760975478926C362.6704439470592 408.63539390473 377.6022625431346 393.7409048551448 385.06817184117233 395.3087458077327C392.53408113921 396.8765867603206 407.4658997352854 419.0503373754926 414.93180903332313 419.0503373754926C422.3977183313608 419.0503373754926 437.32953692743627 395.25275148799744 444.79544622547394 395.3087458077327C452.2613555235116 395.364740127468 467.19317411958696 421.12212720569806 474.6590834176247 419.49829193337484C482.1249927156624 417.8744566610516 497.0568113117378 382.6540295475588 504.52272060977555 382.3180636291471C511.9886299078132 381.9820977107354 526.9204485038886 414.1228372387877 534.3863578019264 416.8105645860813C541.852267099964 419.49829193337484 560.5170403450583 405.44371767981886 564.249994994077 403.8198824074957 " transform="rotate(27, 400, 400)"></path><path d="M253.9999857538397 419.3227237741769C257.31816766407866 416.3363600549618 273.90907721527356 396.2779504075672 280.54544103575154 395.4318140204563C287.18180485622946 394.5856776333453 300.45453249718537 414.395223637472 307.09089631766335 412.5536326772894C313.7272601381413 410.71204171710673 326.9999877790972 381.5452227261061 333.63635159957516 380.6990863389952C340.27271542005315 379.8529499518842 353.54544306100905 403.89317789156564 360.181806881487 405.7845415804019C366.81817070196496 407.67590526923806 380.09089834292087 394.4363594473846 386.7272621633988 395.8299958496849C393.3636259838768 397.2236322519853 406.6363536248327 416.9336327988048 413.2727174453106 416.9336327988048C419.9090812657886 416.9336327988048 433.18180890674455 395.7802231210313 439.8181727272225 395.8299958496849C446.4545365477004 395.8797685783385 459.72726418865636 418.77522375898747 466.3636280091343 417.3318146280335C472.9999918296122 415.88840549707953 486.2727194705682 384.58135917397476 492.90908329104616 384.2827228020533C499.5454471115241 383.98408643013175 512.81817475248 412.5536326772894 519.454538572958 414.9427236526614C526.090902393436 417.3318146280335 542.6818119446307 404.83885973598376 545.9999938548697 403.3954506050298 " transform="rotate(24, 400, 400)"></path><path d="M272.2499856272611 416.90738282556765C275.1533947987202 414.2943145712544 289.6704406560157 396.74320612978414 295.47725899893396 396.00283679106207C301.28407734185214 395.26246745234 312.8977140276886 412.5958202059509 318.7045323706068 410.98442811579105C324.51135071352496 409.3730360256312 336.12498739936143 383.8520694085057 341.9318057422796 383.11170006978364C347.7386240851979 382.37133073106156 359.35226077103425 403.40653017828276 365.1590791139525 405.06147340601444C370.9658974568707 406.7164166337462 382.5795341427071 395.1318140396243 388.3863524856253 396.3512458916372C394.19317082854354 397.57067774365 405.80680751437995 414.81692822211704 411.6136258572982 414.81692822211704C417.42044420021637 414.81692822211704 429.03408088605283 396.30769475406527 434.840899228971 396.3512458916372C440.6477175718892 396.39479702920903 452.26135425772566 416.42832031227687 458.06817260064383 415.16533732269215C463.874990943562 413.90235433310744 475.48862762939854 386.50868880039076 481.2954459723167 386.24738197495947C487.10226431523495 385.9860751495281 498.71590100107136 410.98442811579105 504.5227193439896 413.0748827192416C510.32953768690777 415.16533732269215 524.8465835442032 404.2340017921486 527.7499927156624 402.9710188025639 " transform="rotate(21, 400, 400)"></path><path d="M290.50000075947156 414.49204283063267C292.9886371921508 412.2522700412214 305.43181935554696 397.20846280567537 310.40909222090545 396.5738605153422C315.38636508626394 395.939258225009 325.34091081698085 410.796417728104 330.3181836823393 409.415224507967C335.29545654769777 408.03403128783003 345.25000227841474 386.1589170445796 350.22727514377317 385.5243147542464C355.20454800913166 384.88971246391316 365.1590937398486 402.9198834186742 370.13636660520706 404.3384061853014C375.11363947056554 405.75692895192856 385.0681852012824 395.82726958553843 390.0454580666409 396.8724968872637C395.0227309319994 397.917724188989 404.9772766627163 412.7002245991036 409.9545495280748 412.7002245991036C414.93182239343327 412.7002245991036 424.8863681241502 396.8351673407735 429.86364098950867 396.8724968872637C434.8409138548671 396.9098264337539 444.79545958558407 414.0814178192406 449.7727324509425 412.9988609710251C454.750005316301 411.91630412280966 464.70455104701796 388.43601938048107 469.68182391237644 388.21204210153996C474.6590967777348 387.98806482259886 484.6136425084518 409.415224507967 489.5909153738103 411.20704273949605C494.5681882391687 412.9988609710251 507.01137040256486 403.6291448019878 509.5000068352441 402.54658795377236 " transform="rotate(18, 400, 400)"></path><path d="M308.74999300349845 412.076703789372C310.8238566973978 410.2102264648626 321.1931751668946 397.67372043524097 325.34090255469334 397.14488519329666C329.488629942492 396.6160499513523 337.7840847180895 408.9970162039315 341.9318121058882 407.8460218538173C346.0795394936869 406.69502750370316 354.3749942692844 388.4657656343278 358.52272165708314 387.9369303923835C362.6704490448818 387.4080951504391 370.9659038204793 402.43323761274 375.113631208278 403.61533991826263C379.2613585960767 404.79744222378525 387.55681337167414 396.5227260851268 391.7045407594729 397.39374883656455C395.8522681472716 398.2647715880023 404.14772292286904 410.5835219297645 408.2954503106678 410.5835219297645C412.4431776984665 410.5835219297645 420.738632474064 397.36264088115604 424.8863598618627 397.39374883656455C429.0340872496614 397.42485679197307 437.3295420252589 411.7345162798786 441.47726941305757 410.8323855730324C445.62499680085625 409.9302548661862 453.92045157645373 390.3633509142457 458.06817896425247 390.1767031817948C462.2159063520512 389.9900554493438 470.5113611276486 407.8460218538173 474.65908851544737 409.33920371342487C478.80681590324605 410.8323855730324 489.17613437274287 403.0242887655013 491.2499980666422 402.1221580586551 " transform="rotate(15, 400, 400)"></path><path d="M326.99999287691986 409.66136284076276C328.65908383203936 408.1681809811552 336.9545386076368 398.13897615745793 340.27272051787577 397.71590796390245C343.59090242811476 397.292839770347 350.2272662485927 407.1976127724103 353.5454481588317 406.276817292319C356.8636300690706 405.3560218122277 363.4999938895486 390.77261231672736 366.8181757997876 390.3495441231719C370.1363577100266 389.92647592961646 376.77272153050455 401.94658989945714 380.0909034407435 402.89227174387526C383.4090853509825 403.8379535882934 390.0454491714604 397.2181806773666 393.3636310816994 397.91499887851677C396.6818129919384 398.61181707966693 403.31817681241637 408.46681735307675 406.6363587226553 408.46681735307675C409.9545406328943 408.46681735307675 416.5909044533723 397.89011251419 419.9090863636112 397.91499887851677C423.2272682738502 397.93988524284356 429.8636320943282 409.387612833168 433.1818140045672 408.66590826769107C436.4999959148061 407.9442037022141 443.1363597352841 392.2906805406617 446.4545416455231 392.14136235470096C449.772723555762 391.9920441687402 456.40908737624 406.276817292319 459.727269286479 407.47136278000505C463.045451196718 408.66590826769107 471.34090597231534 402.4194308216662 472.99999692743484 401.6977262561892 " transform="rotate(12, 400, 400)"></path><path d="M345.2499965650385 407.24602189215346C346.49431478137814 406.1261354974478 352.7159058630762 398.60423187967484 355.20454229575546 398.28693073450825C357.6931787284347 397.96962958934165 362.67045159379313 405.39820934088914 365.1590880264724 404.70761273082064C367.6477244591516 404.0170161207522 372.6249973245101 393.0794589991269 375.1136337571893 392.76215785396033C377.6022701898686 392.44485670879374 382.579543055227 401.45994218617426 385.06817948790626 402.1692035694879C387.5568159205855 402.87846495280144 392.53408878594394 397.91363526960635 395.0227252186232 398.436248920469C397.5113616513024 398.9588625713316 402.4886345166609 406.350112776389 404.9772709493401 406.350112776389C407.4659073820194 406.350112776389 412.4431802473778 398.4175841472239 414.93181668005707 398.436248920469C417.42045311273625 398.4549136937141 422.39772597809474 407.0407093864575 424.886362410774 406.4994309623497C427.3749988434532 405.95815253824196 432.3522717088117 394.2180101670777 434.84090814149096 394.10602152760714C437.32954457417014 393.9940328881366 442.30681743952863 404.70761273082064 444.7954538722079 405.6035218465852C447.28409030488706 406.4994309623497 453.50568138658514 401.81457287783104 454.7499996029248 401.27329445372334 " transform="rotate(9, 400, 400)"></path><path d="M363.4999964384599 404.83068189721854C364.32954191601965 404.0840909674148 368.4772693038184 399.0694885555661 370.1363602589379 398.85795445878836C371.7954512140574 398.64642036201064 375.11363312429637 403.59880686304234 376.77272407941587 403.1384091229967C378.4318150345353 402.678011382951 381.7499969447743 395.38630663520087 383.4090878998938 395.1747725384231C385.0681788550133 394.9632384416454 388.3863607652523 400.97329542656576 390.0454517203717 401.44613634877476C391.7045426754912 401.9189772709838 395.0227245857302 398.60909081552046 396.6818155408497 398.95749991609557C398.3409064959692 399.3059090166706 401.6590884062082 404.23340915337553 403.3181793613277 404.23340915337553C404.9772703164472 404.23340915337553 408.29545222668617 398.9450567339321 409.9545431818056 398.95749991609557C411.6136341369251 398.96994309825897 414.9318160471641 404.6938068934212 416.5909070022836 404.3329546106827C418.249997957403 403.9721023279442 421.568179867642 396.145340747168 423.2272708227615 396.07068165418764C424.886361777881 395.99602256120727 428.20454368812 403.1384091229967 429.8636346432395 403.7356818668397C431.522725598359 404.3329546106827 435.67045298615767 401.20971588767026 436.4999984637174 400.84886360493175 " transform="rotate(6, 400, 400)"></path><path d="M381.7500001265786 402.41534094860924C382.1647728653585 402.0420454837074 384.2386365592578 399.53474427778303 385.0681820368176 399.4289772293942C385.8977275143773 399.3232101810053 387.5568184694968 401.79940343152117 388.38636394705657 401.56920456149834C389.2159094246163 401.3390056914755 390.87500037973575 397.69315331760043 391.70454585729556 397.58738626921155C392.53409133485525 397.48161922082267 394.19318228997474 400.4866477132829 395.0227277675345 400.7230681743874C395.85227324509424 400.95948863549194 397.51136420021373 399.3045454077602 398.3409096777735 399.4787499580478C399.17045515533323 399.6529545083353 400.8295461104527 402.11670457668777 401.6590915880125 402.11670457668777C402.4886370655722 402.11670457668777 404.1477280206917 399.47252836696606 404.9772734982514 399.4787499580478C405.8068189758112 399.48497154912945 407.4659099309307 402.3469034467106 408.2954554084904 402.16647730534135C409.12500088605015 401.9860511639721 410.78409184116964 398.072670373584 411.6136373187294 398.0353408270938C412.44318279628914 397.99801128060363 414.10227375140863 401.56920456149834 414.9318192289684 401.8678409334198C415.7613647065281 402.16647730534135 417.83522840042747 400.6048579438351 418.25000113920737 400.4244318024659 " transform="rotate(3, 400, 400)"></path></g></svg>